<?xml version="1.0" encoding="UTF-8"?>
<svg width="32" height="32" viewBox="0 0 32 32" fill="none" xmlns="http://www.w3.org/2000/svg">
    <path d="M16 2.667c-7.364 0-13.333 5.97-13.333 13.333 0 7.364 5.97 13.333 13.333 13.333 7.364 0 13.333-5.97 13.333-13.333C29.333 8.636 23.364 2.667 16 2.667zM8 16c0-4.42 3.58-8 8-8s8 3.58 8 8-3.58 8-8 8-8-3.58-8-8z" fill="#00A67E"/>
    <path d="M16 10.667c-2.946 0-5.333 2.387-5.333 5.333S13.054 21.333 16 21.333 21.333 18.946 21.333 16 18.946 10.667 16 10.667z" fill="#00A67E"/>
</svg>